<svg xmlns="http://www.w3.org/2000/svg" fill="none" viewBox="0 0 24 24" id="Codeigniter-Icon--Streamline-Svg-Logos" height="24" width="24">
  <desc>
    Codeigniter Icon Streamline Icon: https://streamlinehq.com
  </desc>
  <path fill="#dd4814" d="M8.55835 23.7412c-1.507625 -0.666075 -2.532025 -2.101 -2.666425 -3.744475 0.088125 -1.690475 0.9811 -3.23555 2.399125 -4.157175 -0.232775 0.567675 -0.176225 1.2139 0.146875 1.733075 0.367925 0.51405 1.000925 0.7608 1.620725 0.632275 0.882675 -0.2482 1.399675 -1.164675 1.15145 -2.0481 -0.088125 -0.30915 -0.26435 -0.589675 -0.505225 -0.801175 -0.998725 -0.8122 -1.500275 -2.0885 -1.321825 -3.364075 0.1711 -0.6756 0.544875 -1.286575 1.072875 -1.74775 -0.39655 1.057475 0.721875 2.100975 1.472375 2.6143 1.332125 0.798975 2.6143 1.67725 3.842125 2.6297 1.341675 1.057475 2.073075 2.7127 1.958525 4.406125 -0.301825 1.8021 -1.57665 3.2899 -3.314125 3.848 3.475675 -0.773275 7.059325 -3.53445 7.127625 -7.45075 -0.0683 -3.133475 -1.9387 -5.9453 -4.797525 -7.226025h-0.12705c0.06315 0.1535 0.094 0.318725 0.088125 0.485425 0.00955 -0.10795 0.00955 -0.215175 0 -0.323125 0.015425 0.12705 0.015425 0.254825 0 0.381875 -0.217375 0.89075 -1.116225 1.439325 -2.0092 1.22195 -0.356875 -0.088125 -0.6756 -0.2886 -0.9047 -0.577925 -1.1456 -1.4687 0 -3.1401 0.19165 -4.755675C14.10125 3.43195 13.1576 1.457275 11.483275 0.25c0.8379 1.3967375 -0.2783 3.23115 -1.089775 4.274675 -0.812925 1.0435 -1.987875 1.821175 -2.945475 2.731775 -1.031775 0.9598 -1.977625 2.015075 -2.826525 3.143025 -1.83515 2.241975 -2.555545 5.199225 -1.958525 8.033825C3.481775 21.165075 5.7524 23.2176 8.552475 23.75h0.015425l-0.00955 -0.0088Z" stroke-width="0.25"></path>
</svg>